<?xml version="1.0" encoding="UTF-8" standalone="no"?>
<svg
   xmlns:dc="http://purl.org/dc/elements/1.1/"
   xmlns:cc="http://creativecommons.org/ns#"
   xmlns:rdf="http://www.w3.org/1999/02/22-rdf-syntax-ns#"
   xmlns:svg="http://www.w3.org/2000/svg"
   xmlns="http://www.w3.org/2000/svg"
   xmlns:sodipodi="http://sodipodi.sourceforge.net/DTD/sodipodi-0.dtd"
   xmlns:inkscape="http://www.inkscape.org/namespaces/inkscape"
   width="16"
   height="16"
   viewBox="0 0 16 16"
   fill="none"
   version="1.1"
   id="svg12"
   sodipodi:docname="docker-symbolic.svg"
   inkscape:version="1.0 (4035a4fb49, 2020-05-01)">
  <metadata
     id="metadata18">
    <rdf:RDF>
      <cc:Work
         rdf:about="">
        <dc:format>image/svg+xml</dc:format>
        <dc:type
           rdf:resource="http://purl.org/dc/dcmitype/StillImage" />
        <dc:title></dc:title>
      </cc:Work>
    </rdf:RDF>
  </metadata>
  <defs
     id="defs16" />
  <sodipodi:namedview
     inkscape:document-rotation="0"
     pagecolor="#ffffff"
     bordercolor="#666666"
     borderopacity="1"
     objecttolerance="10"
     gridtolerance="10"
     guidetolerance="10"
     inkscape:pageopacity="0"
     inkscape:pageshadow="2"
     inkscape:window-width="640"
     inkscape:window-height="480"
     id="namedview14"
     showgrid="true"
     inkscape:pagecheckerboard="true"
     borderlayer="true"
     inkscape:zoom="50.25"
     inkscape:cx="8"
     inkscape:cy="8"
     inkscape:current-layer="layer1">
    <inkscape:grid
       empopacity="0.25098039"
       empcolor="#1a73e8"
       opacity="0.05098039"
       color="#1a73e8"
       spacingy="0.5"
       spacingx="0.5"
       empspacing="2"
       type="xygrid"
       id="grid20" />
  </sodipodi:namedview>
  <g
     inkscape:groupmode="layer"
     id="layer1"
     inkscape:label="Icon"
     sodipodi:insensitive="true">
    <path
       fill-rule="evenodd"
       clip-rule="evenodd"
       d="m 11.9771,7.93852 c -6e-4,0.02408 -0.0012,0.04817 -0.0018,0.07226 L 1,8.00292 C 0.25781,8.00099 0,8.21386 0,9 0,10.5 0.612314,12 1.67287,12.9773 2.77945,13.997 4.53417,14 6,14 8,14 10,13.3156 11.4536,11.8497 12,11.3228 12.7757,10.2103 13,9 14,9 15,9 16,8 16,8 15,7 14,7 14,6 13,5 13,5 12.0238,5.97616 12.0006,6.95233 11.9771,7.93852 Z M 5,12 c 0.55228,0 1,-0.4477 1,-1 0,-0.5523 -0.44772,-1 -1,-1 -0.55228,0 -1,0.4477 -1,1 0,0.5523 0.44772,1 1,1 z"
       fill="#DEDDDA"
       id="path2"
       style="fill:#deddda;fill-opacity:1" />
    <path
       id="path4"
       d="M 6,2 V 4 H 8 V 2 Z M 2,5 V 7 H 4 V 5 Z M 5,5 V 7 H 7 V 5 Z m 3,0 v 2 h 2 V 5 Z"
       style="fill:#deddda;fill-opacity:1" />
  </g>
</svg>
