<svg xmlns="http://www.w3.org/2000/svg" viewBox="0 0 24 24">
  <path d="M18.192 7.672l-.235.272c-.472.546-.613 1.456-.55 2.154.05.513.21 1.035.526 1.447-.24.144-.514.258-.757.34-.495.168-1.033.263-1.555.263H2.07l-.032.336c0 4.638 2.887 6.292 7.635 6.292 5.28 0 7.65-2.116 9.7-6.33 1.295.07 2.62-.316 3.254-1.552l.16-.314-.305-.18c-.75-.43-1.748-.49-2.598-.24-.103-.904-.7-1.696-1.403-2.263zm-9.007 6.252c.752 0 1.37.618 1.37 1.37 0 .753-.618 1.37-1.37 1.37-.753 0-1.37-.617-1.37-1.37 0-.752.617-1.37 1.37-1.37zm0 .747c-.35 0-.624.28-.624.63s.28.625.63.625.624-.275.624-.624c0-.35-.274-.624-.623-.624z" clip-rule="evenodd" fill="#fbfbfb" fill-rule="evenodd"/>
  <path d="M3.68 17.06l4.098-.252s.702.797 1.29 1.1c.9.466 2.703.74 2.703.74s-2.98.46-5.75-.32c-1.38-.392-2.34-1.27-2.34-1.27z" fill-opacity=".34" fill-rule="evenodd"/>
  <path style="isolation:auto;mix-blend-mode:normal" d="M3.122 16.415s1.75.155 2.407.114c.66-.048 1.842-.29 1.842-.29l.414.55s-1.56.333-2.226.374c-.656.04-1.973-.1-1.973-.1z" color="#000" overflow="visible" solid-color="#000000"/>
  <path d="M12 9h2v2h-2zM9 9h2v2H9zM6 9h2v2H6zM3 9h2v2H3zm9-3h2v2h-2zM9 6h2v2H9zM6 6h2v2H6zm3-3h2v2H9z" clip-rule="evenodd" fill="#fff" fill-rule="evenodd"/>
</svg>
