<?xml version="1.0" encoding="UTF-8" standalone="no"?>
<!-- Generator: Adobe Illustrator 16.0.0, SVG Export Plug-In . SVG Version: 6.00 Build 0)  -->

<svg
   xmlns:dc="http://purl.org/dc/elements/1.1/"
   xmlns:cc="http://creativecommons.org/ns#"
   xmlns:rdf="http://www.w3.org/1999/02/22-rdf-syntax-ns#"
   xmlns:svg="http://www.w3.org/2000/svg"
   xmlns="http://www.w3.org/2000/svg"
   xmlns:sodipodi="http://sodipodi.sourceforge.net/DTD/sodipodi-0.dtd"
   xmlns:inkscape="http://www.inkscape.org/namespaces/inkscape"
   version="1.1"
   id="Layer_1"
   x="0px"
   y="0px"
   width="24"
   height="24"
   viewBox="0 0 24 24"
   enable-background="new 0 0 466 423.891"
   xml:space="preserve"
   sodipodi:docname="docker.svg"
   inkscape:version="0.91 r13725"
   inkscape:export-filename="/home/felipe/Escritorio/docker.png"
   inkscape:export-xdpi="96"
   inkscape:export-ydpi="96"><metadata
     id="metadata41"><rdf:RDF><cc:Work
         rdf:about=""><dc:format>image/svg+xml</dc:format><dc:type
           rdf:resource="http://purl.org/dc/dcmitype/StillImage" /><dc:title /></cc:Work></rdf:RDF></metadata><defs
     id="defs39" /><sodipodi:namedview
     pagecolor="#000000"
     bordercolor="#666666"
     borderopacity="1"
     objecttolerance="10"
     gridtolerance="10"
     guidetolerance="10"
     inkscape:pageopacity="0"
     inkscape:pageshadow="2"
     inkscape:window-width="640"
     inkscape:window-height="480"
     id="namedview37"
     showgrid="false"
     inkscape:zoom="50.730021"
     inkscape:cx="12.875981"
     inkscape:cy="12.777747"
     inkscape:current-layer="g8209" /><g
     inkscape:groupmode="layer"
     id="layer2"
     inkscape:label="Layer 2"
     style="display:inline"><path
       style="clip-rule:evenodd;fill:#fbfbfb;fill-opacity:1;fill-rule:evenodd;stroke-width:0.04747107"
       d="M 18.191597,7.672201 17.95722,7.9437815 c -0.472584,0.5465348 -0.613218,1.4557509 -0.548742,2.1540525 0.04751,0.513396 0.208587,1.034712 0.524559,1.447189 -0.239922,0.14427 -0.513879,0.258033 -0.757076,0.340406 -0.494889,0.167677 -1.032509,0.26228 -1.555077,0.26228 l -13.5578639,0 -0.031622,0.336685 c 0,4.637502 2.8855597,6.291695 7.6336158,6.291695 5.2821801,0 7.6511881,-2.11613 9.7003301,-6.328892 1.294914,0.06769 2.619883,-0.316779 3.253386,-1.553216 l 0.161833,-0.314369 -0.306924,-0.178573 C 21.724548,9.9686694 20.726659,9.9092346 19.876884,10.159219 19.77221,9.2559832 19.178239,8.4643675 18.472478,7.8972778 Z M 9.1847718,13.92439 c 0.7525101,0 1.3705512,0.618041 1.3705512,1.370551 0,0.75251 -0.6180411,1.37055 -1.3705512,1.37055 -0.75251,0 -1.3705504,-0.61804 -1.3705504,-1.37055 0,-0.75251 0.6180404,-1.370551 1.3705504,-1.370551 z m 0,0.746844 c -0.348788,0 -0.6237074,0.274917 -0.6237074,0.623707 0,0.348788 0.2749194,0.623707 0.6237074,0.623707 0.3487882,0 0.6237076,-0.274919 0.6237076,-0.623707 0,-0.34879 -0.2749194,-0.623707 -0.6237076,-0.623707 z"
       id="outline_7_"
       inkscape:connector-curvature="0"
       sodipodi:nodetypes="cccccsccccccccccssssssssss" /><path
       style="fill:#000000;fill-opacity:0.34031414;fill-rule:evenodd;stroke:none;stroke-width:1px;stroke-linecap:butt;stroke-linejoin:miter;stroke-opacity:1"
       d="m 3.6797972,17.058564 4.097956,-0.250893 c 0,0 0.7021835,0.797566 1.289323,1.101151 0.9002132,0.465463 2.7040928,0.738748 2.7040928,0.738748 0,0 -2.9801905,0.46011 -5.7496842,-0.320589 C 4.6341454,17.9359 3.6797972,17.058564 3.6797972,17.058564 Z"
       id="path8074"
       inkscape:connector-curvature="0"
       sodipodi:nodetypes="ccscsc" /><path
       style="color:#000000;clip-rule:nonzero;display:inline;overflow:visible;visibility:visible;opacity:1;isolation:auto;mix-blend-mode:normal;color-interpolation:sRGB;color-interpolation-filters:linearRGB;solid-color:#000000;solid-opacity:1;fill:#000000;fill-opacity:1;fill-rule:nonzero;stroke:none;stroke-width:0.384;stroke-linecap:butt;stroke-linejoin:miter;stroke-miterlimit:4;stroke-dasharray:none;stroke-dashoffset:0;stroke-opacity:0.99616855;marker:none;marker-start:none;marker-mid:none;marker-end:none;paint-order:normal;color-rendering:auto;image-rendering:auto;shape-rendering:auto;text-rendering:auto;enable-background:accumulate"
       d="m 3.1221212,16.415042 c 0,0 1.7494847,0.154696 2.4065488,0.114102 0.6639514,-0.04102 1.8490039,-0.290117 1.8490039,-0.290117 l 0.4141489,0.557052 c 0,0 -1.5613954,0.33273 -2.2253468,0.373749 -0.6570641,0.04059 -1.9744514,-0.100163 -1.9744514,-0.100163 z"
       id="rect8076"
       inkscape:connector-curvature="0"
       sodipodi:nodetypes="csccscc" /></g><rect
     x="-43.5"
     y="-362.88599"
     display="none"
     width="792"
     height="612"
     id="rect2"
     style="clip-rule:evenodd;display:none;fill:#e7e7e7;fill-rule:evenodd" /><g
     inkscape:groupmode="layer"
     id="layer1"
     inkscape:label="Layer 1"
     style="display:inline"><g
       id="g8079"><path
         sodipodi:nodetypes="ccccc"
         style="clip-rule:evenodd;fill:#ffffff;fill-rule:evenodd;stroke-width:0.04894644"
         inkscape:connector-curvature="0"
         id="path23-6"
         d="m 11.99999,9.0000487 2,0 0,1.9999513 -2,0 z" /><path
         sodipodi:nodetypes="ccccc"
         style="clip-rule:evenodd;fill:#ffffff;fill-rule:evenodd;stroke-width:0.04894644"
         inkscape:connector-curvature="0"
         id="path23-6-5"
         d="m 9,9.0000493 1.99999,0 L 10.99999,11 9,11 Z" /><path
         sodipodi:nodetypes="ccccc"
         style="clip-rule:evenodd;fill:#ffffff;fill-rule:evenodd;stroke-width:0.04894644"
         inkscape:connector-curvature="0"
         id="path23-6-6"
         d="m 6,9.0000489 2,0 L 8,11 6,11 Z" /><path
         sodipodi:nodetypes="ccccc"
         style="clip-rule:evenodd;fill:#ffffff;fill-rule:evenodd;stroke-width:0.04894644"
         inkscape:connector-curvature="0"
         id="path23-6-5-2"
         d="m 3,9.0000489 2,0 L 5,11 3,11 Z" /><path
         sodipodi:nodetypes="ccccc"
         style="clip-rule:evenodd;fill:#ffffff;fill-rule:evenodd;stroke-width:0.04894644"
         inkscape:connector-curvature="0"
         id="path23-6-1"
         d="m 11.99999,6.000049 2,0 0,1.999951 -2,0 z" /><path
         sodipodi:nodetypes="ccccc"
         style="clip-rule:evenodd;fill:#ffffff;fill-rule:evenodd;stroke-width:0.04894644"
         inkscape:connector-curvature="0"
         id="path23-6-5-27"
         d="m 9,6.00005 1.999989,0 0,1.99995 L 9,8 Z" /><path
         sodipodi:nodetypes="ccccc"
         style="clip-rule:evenodd;fill:#ffffff;fill-rule:evenodd;stroke-width:0.04894644"
         inkscape:connector-curvature="0"
         id="path23-6-6-0"
         d="m 6,6.000049 2,0 L 8,8 6,8 Z" /><path
         sodipodi:nodetypes="ccccc"
         style="clip-rule:evenodd;fill:#ffffff;fill-rule:evenodd;stroke-width:0.04894644"
         inkscape:connector-curvature="0"
         id="path23-6-1-9"
         d="m 9,3.000049 2,0 L 11,5 9,5 Z" /></g></g><g
     style="display:none"
     inkscape:label="Layer 1 copia"
     id="g8207"
     inkscape:groupmode="layer"><g
       id="g8209" /></g></svg>